<?xml version="1.0" standalone="no"?>
<!DOCTYPE svg PUBLIC "-//W3C//DTD SVG 20010904//EN"
 "http://www.w3.org/TR/2001/REC-SVG-20010904/DTD/svg10.dtd">
<svg version="1.0" xmlns="http://www.w3.org/2000/svg"
 width="194.000000pt" height="189.000000pt" viewBox="0 0 194.000000 189.000000"
 preserveAspectRatio="xMidYMid meet">

<g transform="translate(0.000000,189.000000) scale(0.100000,-0.100000)"
fill="#000000" stroke="none">
<path d="M520 1549 l-35 -30 38 26 c33 24 43 35 34 35 -1 0 -18 -14 -37 -31z"/>
<path d="M843 1535 c-73 -20 -127 -49 -180 -98 -80 -74 -119 -162 -132 -297
-8 -82 -10 -89 -66 -172 -34 -52 -55 -93 -52 -103 4 -8 27 -25 52 -37 45 -22
53 -32 35 -43 -15 -9 -12 -35 4 -35 24 0 29 -20 10 -41 -16 -18 -16 -20 0 -38
14 -16 16 -30 11 -75 -7 -55 -7 -56 21 -67 22 -8 44 -7 94 5 87 21 114 20 145
-7 29 -24 48 -88 38 -127 -11 -43 22 -7 47 53 18 41 23 70 22 137 0 106 -27
189 -120 385 -64 134 -67 143 -66 215 0 66 4 83 33 138 87 161 280 214 480
131 63 -26 27 4 -46 37 -105 50 -234 65 -330 39z"/>
<path d="M411 1455 c-109 -117 -174 -241 -206 -395 -38 -179 1 -398 99 -559
45 -73 135 -173 148 -165 7 4 8 2 4 -4 -4 -6 16 -28 46 -50 74 -55 95 -65 104
-50 4 7 4 10 -1 6 -9 -9 -65 19 -65 32 0 6 -6 10 -12 10 -18 1 -53 29 -45 36
4 4 13 1 22 -6 10 -8 52 -12 142 -10 490 7 798 8 806 3 5 -3 -4 -17 -19 -30
-16 -13 -22 -21 -14 -17 28 13 50 37 43 47 -4 6 -1 7 6 2 14 -8 80 51 134 120
17 22 0 7 -38 -33 l-70 -72 -496 0 -496 0 -64 68 c-74 77 -117 137 -154 213
-14 30 -23 44 -21 31 2 -13 0 -20 -6 -16 -5 4 -8 18 -5 32 3 14 -2 48 -11 76
-12 37 -17 91 -17 201 0 130 3 160 23 225 41 127 96 222 185 318 28 28 48 52
45 52 -3 0 -33 -29 -67 -65z m-204 -602 c-2 -16 -4 -3 -4 27 0 30 2 43 4 28 2
-16 2 -40 0 -55z m10 -75 c-3 -7 -5 -2 -5 12 0 14 2 19 5 13 2 -7 2 -19 0 -25z
m23 -73 c0 -8 -2 -15 -4 -15 -2 0 -6 7 -10 15 -3 8 -1 15 4 15 6 0 10 -7 10
-15z m50 -135 c6 -11 8 -20 6 -20 -3 0 -10 9 -16 20 -6 11 -8 20 -6 20 3 0 10
-9 16 -20z m34 -56 c5 -14 4 -15 -9 -4 -17 14 -19 20 -6 20 5 0 12 -7 15 -16z
m55 -89 c0 -5 -11 4 -24 20 -14 17 -25 35 -25 40 0 6 11 -3 25 -20 13 -16 24
-34 24 -40z m41 -40 c19 -23 8 -25 -14 -4 -11 11 -15 19 -9 19 6 0 16 -7 23
-15z"/>
<path d="M1288 1325 c-3 -6 -8 -23 -12 -40 -4 -16 -26 -61 -48 -98 -28 -47
-43 -84 -46 -116 -4 -50 9 -94 22 -72 4 6 2 11 -3 11 -16 0 -13 80 4 115 14
30 14 30 10 3 -3 -20 0 -25 11 -21 17 6 17 9 5 32 -7 13 -2 29 19 61 16 25 32
57 35 72 4 16 11 25 16 22 6 -3 8 -13 5 -21 -3 -8 -2 -12 3 -8 10 6 37 -69 47
-130 6 -43 -11 -125 -26 -125 -5 0 -7 42 -5 95 2 59 0 95 -6 95 -6 0 -8 4 -5
9 3 5 -1 12 -10 15 -12 5 -15 2 -9 -11 28 -70 25 -131 -11 -221 -9 -24 -14
-45 -12 -48 10 -9 59 39 79 79 31 59 22 143 -23 239 -19 40 -37 68 -40 63z
m32 -325 c0 -5 -5 -10 -11 -10 -5 0 -8 -4 -4 -9 3 -5 1 -12 -5 -16 -11 -7 -13
5 -4 29 7 18 24 22 24 6z"/>
<path d="M816 1202 c20 -40 36 -132 28 -164 -3 -15 2 -54 11 -85 13 -45 28
-69 64 -104 26 -25 62 -51 79 -57 29 -10 32 -9 32 8 0 33 -41 173 -65 219
l-22 44 0 -32 c0 -18 3 -27 7 -21 8 13 20 -11 20 -40 0 -10 4 -20 10 -22 5 -2
11 -16 14 -33 2 -16 6 -37 9 -45 21 -59 15 -88 -13 -55 -7 8 -16 12 -21 10
-15 -10 -78 55 -74 75 2 11 -1 19 -8 17 -14 -3 -24 42 -26 113 0 31 -8 82 -16
113 -19 72 -19 68 8 58 12 -5 21 -14 20 -20 -2 -6 4 -11 13 -11 33 0 139 -77
139 -101 0 -5 5 -9 10 -10 10 0 29 -38 27 -51 -1 -5 3 -8 9 -8 7 0 9 -10 7
-25 -3 -13 -1 -22 3 -19 11 6 11 -43 0 -70 -6 -17 -9 -15 -21 13 -7 17 -10 34
-7 38 3 3 0 12 -8 20 -8 8 -15 23 -15 34 0 10 -5 19 -11 19 -6 0 -8 7 -5 16 3
8 2 13 -3 9 -5 -3 -19 7 -30 21 -32 40 -25 19 8 -27 32 -43 55 -107 67 -178
l6 -45 16 30 c24 43 21 139 -5 190 -30 56 -117 133 -195 172 -37 17 -69 32
-71 32 -3 0 1 -13 9 -28z"/>
<path d="M851 1174 c0 -11 3 -14 6 -6 3 7 2 16 -1 19 -3 4 -6 -2 -5 -13z"/>
<path d="M1280 1145 c0 -25 -18 -83 -46 -150 -12 -29 -18 -35 -25 -24 -5 8 -9
10 -9 4 0 -14 18 -41 23 -35 2 3 17 37 32 75 27 67 44 155 31 155 -3 0 -6 -11
-6 -25z"/>
<path d="M1146 833 c-92 -102 -113 -152 -131 -303 -8 -72 -21 -132 -30 -146
-15 -24 -15 -24 24 -24 49 0 51 6 51 165 1 142 9 168 78 259 45 58 88 127 80
126 -2 0 -34 -35 -72 -77z"/>
<path d="M1275 830 c-14 -6 -2 -9 42 -9 34 -1 75 -6 90 -12 124 -51 133 -61
66 -74 -21 -4 -40 -10 -43 -14 -3 -3 -18 -15 -33 -25 -16 -9 -27 -20 -24 -23
3 -2 22 7 44 21 21 14 61 31 90 39 l52 13 -57 32 c-55 30 -158 63 -192 61 -8
0 -24 -4 -35 -9z"/>
<path d="M1193 785 c-20 -20 -33 -38 -30 -41 3 -3 27 2 54 11 26 9 77 20 113
25 57 6 59 8 20 8 -25 1 -63 -3 -85 -8 -28 -6 -42 -6 -47 3 -4 7 1 15 12 19
22 8 27 18 9 18 -6 0 -27 -16 -46 -35z m14 -21 c-3 -3 -12 -4 -19 -1 -8 3 -5
6 6 6 11 1 17 -2 13 -5z"/>
<path d="M1405 770 c4 -6 11 -8 16 -5 14 9 11 15 -7 15 -8 0 -12 -5 -9 -10z"/>
<path d="M1308 745 c-69 -15 -148 -44 -148 -54 0 -11 51 -33 58 -26 4 3 -4 8
-16 12 -12 3 -22 8 -22 12 0 11 122 45 170 47 24 1 46 7 48 13 4 13 -16 13
-90 -4z"/>
<path d="M1345 670 c-3 -5 -32 -10 -63 -11 -50 -1 -53 -2 -27 -10 32 -9 105 5
105 21 0 13 -7 13 -15 0z"/>
<path d="M1120 564 c0 -49 -6 -115 -14 -146 l-13 -58 114 0 c106 0 115 1 108
18 -11 27 -25 123 -25 170 0 38 -2 42 -24 42 -32 0 -106 27 -128 47 -17 15
-18 12 -18 -73z"/>
<path d="M1380 241 c-8 -6 -19 -7 -25 -4 -5 4 -7 3 -3 -2 10 -11 -71 -47 -85
-38 -6 3 -7 1 -3 -5 5 -8 -1 -12 -18 -12 -14 0 -28 -5 -31 -10 -4 -6 -12 -10
-18 -9 -7 1 -23 -3 -37 -10 -24 -11 -24 -11 7 -7 46 7 184 63 213 86 26 20 26
27 0 11z"/>
<path d="M615 213 c14 -15 138 -62 177 -68 31 -5 32 -5 8 6 -14 6 -29 12 -35
13 -39 9 -95 30 -95 36 0 4 -6 7 -12 7 -7 0 -22 4 -33 8 -14 5 -17 5 -10 -2z"/>
<path d="M865 129 c51 -10 178 -10 230 0 25 4 -18 7 -115 7 -98 0 -140 -2
-115 -7z"/>
</g>
</svg>
