<?xml version="1.0" encoding="UTF-8"?>
<svg width="44px" height="44px" viewBox="0 0 44 44" version="1.1" xmlns="http://www.w3.org/2000/svg" xmlns:xlink="http://www.w3.org/1999/xlink">
    <!-- Generator: Sketch 46.2 (44496) - http://www.bohemiancoding.com/sketch -->
    <title>участки</title>
    <desc>Created with Sketch.</desc>
    <defs></defs>
    <g id="Page-1" stroke="none" stroke-width="1" fill="none" fill-rule="evenodd">
        <g id="KN-icons" transform="translate(-1249.000000, -2217.000000)">
            <g id="участки" transform="translate(1255.000000, 2218.000000)">
                <path d="M9.79313474,30.5594291 C4.02278648,31.5719512 0,33.8509084 0,36.5 C0,40.0898509 7.38730163,43 16.5,43 C25.6126984,43 33,40.0898509 33,36.5 C33,33.8256089 28.9000094,31.5284557 23.0410642,30.5307669 C22.8108874,30.8344697 22.5808377,31.1368402 22.3520079,31.4365984 C28.0277327,32.3138726 32,34.3879005 32,36.5 C32,39.283051 25.1031296,42 16.5,42 C7.89687042,42 1,39.283051 1,36.5 C1,34.408298 4.89591389,32.3539358 10.4840317,31.4623489 C10.254476,31.1635866 10.0238067,30.8621903 9.79313474,30.5594291 Z" id="Combined-Shape" fill="#293340" fill-rule="nonzero"></path>
                <path d="M16.4364733,38.2025402 C16.4936325,38.1308259 16.5556231,38.0529905 16.6222564,37.9692549 C17.078496,37.3959154 17.5869256,36.7536556 18.1344854,36.0577752 C19.6988413,34.0696736 21.2631467,32.0505103 22.7227969,30.1228682 C22.9386424,29.8378184 23.1508788,29.5564931 23.359289,29.2791466 C26.1497668,25.5656577 28.1172385,22.7509812 28.9317956,21.2316879 C31.0342738,17.2848174 31.0136019,12.6146188 28.9247636,8.3842235 L28.9249127,8.3845252 C25.427874,1.31418005 17.0513317,-1.52385281 10.1617476,2.03719826 C3.33961397,5.56338587 0.537152769,14.4206597 3.95289156,21.243687 C4.70736273,22.7571186 6.65299758,25.5696026 9.44955157,29.2784912 C9.6909199,29.5986024 9.93759046,29.9239919 10.1892184,30.2542652 C11.641018,32.1598193 13.1969661,34.1491269 14.7529703,36.1032076 C15.2976102,36.7871842 15.8033248,37.4178646 16.2571202,37.9804024 C16.3212921,38.0599517 16.3811332,38.1340625 16.4364733,38.2025402 Z" id="Combined-Shape" stroke="#293340" fill-rule="nonzero"></path>
                <circle id="Oval-22" stroke="#293340" cx="16.5" cy="14.5" r="6"></circle>
            </g>
        </g>
    </g>
</svg>