<?xml version="1.0" encoding="UTF-8"?>
<svg width="44px" height="44px" viewBox="0 0 44 44" version="1.1" xmlns="http://www.w3.org/2000/svg" xmlns:xlink="http://www.w3.org/1999/xlink">
    <!-- Generator: Sketch 46.2 (44496) - http://www.bohemiancoding.com/sketch -->
    <title>Торговые площадки</title>
    <desc>Created with Sketch.</desc>
    <defs></defs>
    <g id="Page-1" stroke="none" stroke-width="1" fill="none" fill-rule="evenodd">
        <g id="KN-icons" transform="translate(-1245.000000, -2002.000000)" fill-rule="nonzero" fill="#ffffff">
            <g id="Group-30" transform="translate(1245.000000, 2004.000000)">
                <path d="M4,18 L4,40 L40,40 L40,18 L41,18 L41,12 L3,12 L3,18 L4,18 Z M3,11 L41,11 L41,41 L3,41 L3,11 Z" id="Combined-Shape"></path>
                <path d="M2,12 C1.44771525,12 1,12.4477153 1,13 L1,14 C1,16.224647 2.77534999,18 5,18 C7.22465001,18 9,16.224647 9,14 L9,12 L2,12 Z M2,11 L10,11 L10,14 C10,16.7769327 7.77693385,19 5,19 C2.22306615,19 0,16.7769327 0,14 L0,13 C-2.22044605e-16,11.8954305 0.8954305,11 2,11 Z" id="Path"></path>
                <path d="M10,12 L10,14 C10,16.224647 11.77535,18 14,18 C16.22465,18 18,16.224647 18,14 L18,12 L10,12 Z M9,11 L19,11 L19,14 C19,16.7769327 16.7769338,19 14,19 C11.2230662,19 9,16.7769327 9,14 L9,11 Z" id="Path"></path>
                <path d="M19,12 L19,14 C19,16.224647 20.77535,18 23,18 C25.22465,18 27,16.224647 27,14 L27,12 L19,12 Z M18,11 L28,11 L28,14 C28,16.7769327 25.7769338,19 23,19 C20.2230662,19 18,16.7769327 18,14 L18,11 Z" id="Path"></path>
                <path d="M28,12 L28,14 C28,16.224647 29.5534312,18 31.5,18 C33.4465687,18 35,16.224647 35,14 L35,12 L28,12 Z M27,11 L36,11 L36,14 C36,16.7494376 34.030759,19 31.5,19 C28.969241,19 27,16.7494376 27,14 L27,11 Z" id="Path"></path>
                <path d="M36,12 L36,14 C36,16.224647 37.5534313,18 39.5,18 C41.4465687,18 43,16.224647 43,14 L43,13 C43,12.4477153 42.5522847,12 42,12 L36,12 Z M35,11 L42,11 C43.1045695,11 44,11.8954305 44,13 L44,14 C44,16.7494376 42.030759,19 39.5,19 C36.969241,19 35,16.7494376 35,14 L35,11 Z" id="Path"></path>
                <path d="M36.4256297,1 L7.57437033,1 L1.741037,11 L42.258963,11 L36.4256297,1 Z M7,0 L37,0 L44,12 L0,12 L7,0 Z" id="Rectangle-89"></path>
                <path d="M10,26 L10,40 L18,40 L18,26 L10,26 Z M9,25 L19,25 L19,41 L9,41 L9,25 Z" id="Rectangle-90"></path>
                <path d="M26,26 L26,32 L35,32 L35,26 L26,26 Z M25,25 L36,25 L36,33 L25,33 L25,25 Z" id="Rectangle-90-Copy"></path>
            </g>
        </g>
    </g>
</svg>