<?xml version="1.0" encoding="UTF-8"?>
<svg width="44px" height="44px" viewBox="0 0 44 44" version="1.1" xmlns="http://www.w3.org/2000/svg" xmlns:xlink="http://www.w3.org/1999/xlink">
    <!-- Generator: Sketch 46.2 (44496) - http://www.bohemiancoding.com/sketch -->
    <title>Жилая недвижимость</title>
    <desc>Created with Sketch.</desc>
    <defs></defs>
    <g id="Page-1" stroke="none" stroke-width="1" fill="none" fill-rule="evenodd">
        <g id="KN-icons" transform="translate(-1255.000000, -1930.000000)">
            <g id="Жилая-недвижимость" transform="translate(1255.000000, 1933.000000)">
                <path d="M7,10.0294118 L6,10 L6,39 L40,39 L40,11 L39,10.9705882 L39,16.5 L39,38 L7,38 L7,16 L7,10.0294118 Z" id="Combined-Shape" fill="#293340" fill-rule="nonzero"></path>
                <rect id="Rectangle-81" stroke="#293340" x="3.5" y="38.5" width="39" height="1"></rect>
                <rect id="Rectangle-82" stroke="#293340" x="11.5" y="25.5" width="9" height="9" rx="1"></rect>
                <path d="M25.5,38.5 L34.5,38.5 L34.5,26 C34.5,25.7238576 34.2761424,25.5 34,25.5 L26,25.5 C25.7238576,25.5 25.5,25.7238576 25.5,26 L25.5,38.5 Z" id="Rectangle-82-Copy-2" stroke="#293340"></path>
                <rect id="Rectangle-82-Copy" stroke="#293340" x="11.5" y="12.5" width="9" height="8" rx="1"></rect>
                <rect id="Rectangle-82-Copy-3" stroke="#293340" x="25.5" y="12.5" width="9" height="8" rx="1"></rect>
                <path d="M22.3282173,0.297536344 L22.160013,0.00619793146 L0.996421623,12.2250031 L1.49642162,13.0910285 L22.3282173,1.06378567 L43.160013,13.0910285 L43.660013,12.2250031 L22.4964216,0.00619793146 L22.3282173,0.297536344 Z" id="Combined-Shape" fill="#293340"></path>
                <path d="M9,8.5 L10,8 L10,0 L6,0 L6,10 L7,9.5 L7,7.5 L7,1 L9,1 L9,7 L9,8.5 Z" id="Combined-Shape" fill="#293340" fill-rule="nonzero"></path>
            </g>
        </g>
    </g>
</svg>