<?xml version="1.0" encoding="UTF-8"?>
<svg width="44px" height="44px" viewBox="0 0 44 44" version="1.1" xmlns="http://www.w3.org/2000/svg" xmlns:xlink="http://www.w3.org/1999/xlink">
    <!-- Generator: Sketch 46.2 (44496) - http://www.bohemiancoding.com/sketch -->
    <title>Офисы</title>
    <desc>Created with Sketch.</desc>
    <defs></defs>
    <g id="Page-1" stroke="none" stroke-width="1" fill="none" fill-rule="evenodd">
        <g id="KN-icons" transform="translate(-1243.000000, -2136.000000)">
            <g id="Офисы" transform="translate(1244.000000, 2137.000000)">
                <path d="M1,12 L1,41 L25,41 L25,2 C25,1.89312113 17,5.22645447 1,12 Z M0.610149386,11.0791219 C8.61174736,7.69167262 14.6132721,5.16431079 18.6153846,3.49676393 C20.6186115,2.66208607 22.1216894,2.04249723 23.125967,1.63746522 C23.6325431,1.43315967 24.0138115,1.28278729 24.2725747,1.18534041 C24.4112028,1.13313486 24.5179306,1.09484373 24.5987586,1.06872435 C24.6672624,1.04688138 24.6672624,1.04688138 24.7651806,1.0226553 C24.8316001,1.00798028 24.8316001,1.00798028 24.9916296,0.997512893 C25.1169101,0.997205021 25.1169101,0.997205021 25.3896792,1.07779549 C25.8186087,1.33139609 25.8186087,1.33139609 26,2 L26,42 L0,42 L0,11.3374266 L0.610149386,11.0791219 Z" id="Rectangle-79" fill="#ffffff" fill-rule="nonzero"></path>
                <path d="M26,10 L26,41 L40,41 L40,11 C40,10.427649 39.6082492,10 39,10 L26,10 Z M25,9 L39,9 C40.1537412,9 41,9.86808675 41,11 L41,42 L25,42 L25,9 Z" id="Rectangle-79-Copy" fill="#ffffff" fill-rule="nonzero"></path>
                <path d="M31,15 L31,19 L35,19 L35,15 L31,15 Z M31,14 L35,14 C35.5522847,14 36,14.4477153 36,15 L36,19 C36,19.5522847 35.5522847,20 35,20 L31,20 C30.4477153,20 30,19.5522847 30,19 L30,15 C30,14.4477153 30.4477153,14 31,14 Z" id="Rectangle-80" fill="#ffffff" fill-rule="nonzero"></path>
                <path d="M7,24 L7,28 L11,28 L11,24 L7,24 Z M7,23 L11,23 C11.5522847,23 12,23.4477153 12,24 L12,28 C12,28.5522847 11.5522847,29 11,29 L7,29 C6.44771525,29 6,28.5522847 6,28 L6,24 C6,23.4477153 6.44771525,23 7,23 Z" id="Rectangle-80-Copy-4" fill="#ffffff" fill-rule="nonzero"></path>
                <path d="M16,24 L16,28 L20,28 L20,24 L16,24 Z M16,23 L20,23 C20.5522847,23 21,23.4477153 21,24 L21,28 C21,28.5522847 20.5522847,29 20,29 L16,29 C15.4477153,29 15,28.5522847 15,28 L15,24 C15,23.4477153 15.4477153,23 16,23 Z" id="Rectangle-80-Copy-5" fill="#ffffff" fill-rule="nonzero"></path>
                <path d="M7,15 L7,19 L11,19 L11,15 L7,15 Z M7,14 L11,14 C11.5522847,14 12,14.4477153 12,15 L12,19 C12,19.5522847 11.5522847,20 11,20 L7,20 C6.44771525,20 6,19.5522847 6,19 L6,15 C6,14.4477153 6.44771525,14 7,14 Z" id="Rectangle-80-Copy-7" fill="#ffffff" fill-rule="nonzero"></path>
                <path d="M16,15 L16,19 L20,19 L20,15 L16,15 Z M16,14 L20,14 C20.5522847,14 21,14.4477153 21,15 L21,19 C21,19.5522847 20.5522847,20 20,20 L16,20 C15.4477153,20 15,19.5522847 15,19 L15,15 C15,14.4477153 15.4477153,14 16,14 Z" id="Rectangle-80-Copy-6" fill="#ffffff" fill-rule="nonzero"></path>
                <path d="M31,24 L31,28 L35,28 L35,24 L31,24 Z M31,23 L35,23 C35.5522847,23 36,23.4477153 36,24 L36,28 C36,28.5522847 35.5522847,29 35,29 L31,29 C30.4477153,29 30,28.5522847 30,28 L30,24 C30,23.4477153 30.4477153,23 31,23 Z" id="Rectangle-80-Copy" fill="#ffffff" fill-rule="nonzero"></path>
                <path d="M31,33 L31,37 L35,37 L35,33 L31,33 Z M31,32 L35,32 C35.5522847,32 36,32.4477153 36,33 L36,37 C36,37.5522847 35.5522847,38 35,38 L31,38 C30.4477153,38 30,37.5522847 30,37 L30,33 C30,32.4477153 30.4477153,32 31,32 Z" id="Rectangle-80-Copy-2" fill="#ffffff" fill-rule="nonzero"></path>
                <rect id="Rectangle-80-Copy-3" stroke="#ffffff" x="10.5" y="32.5" width="5" height="9" rx="1"></rect>
            </g>
        </g>
    </g>
</svg>