<?xml version="1.0" encoding="UTF-8"?>
<svg width="46px" height="46px" viewBox="0 0 46 46" version="1.1" xmlns="http://www.w3.org/2000/svg" xmlns:xlink="http://www.w3.org/1999/xlink">
    <!-- Generator: Sketch 46.2 (44496) - http://www.bohemiancoding.com/sketch -->
    <title>Прочая недвижимость</title>
    <desc>Created with Sketch.</desc>
    <defs></defs>
    <g id="Page-1" stroke="none" stroke-width="1" fill="none" fill-rule="evenodd">
        <g id="KN-icons" transform="translate(-1245.000000, -2062.000000)">
            <g id="Прочая-недвижимость" transform="translate(1245.000000, 2068.000000)">
                <path d="M14.5,0.5 L14.5,34.5 L31.5,34.5 L31.5,0.5 L14.5,0.5 Z" id="Rectangle-27" stroke="#ffffff"></path>
                <path d="M20.5,34.5 L25.5,34.5 L25.5,26 C25.5,25.7238576 25.2761424,25.5 25,25.5 L21,25.5 C20.7238576,25.5 20.5,25.7238576 20.5,26 L20.5,34.5 Z" id="Rectangle-29" stroke="#ffffff"></path>
                <rect id="Rectangle-29-Copy" stroke="#ffffff" x="20.5" y="5.5" width="5" height="5" rx="1"></rect>
                <rect id="Rectangle-29-Copy-3" stroke="#ffffff" x="6.5" y="17.5" width="5" height="5" rx="1"></rect>
                <rect id="Rectangle-29-Copy-4" stroke="#ffffff" x="34.5" y="17.5" width="5" height="5" rx="1"></rect>
                <rect id="Rectangle-29-Copy-6" stroke="#ffffff" x="6.5" y="26.5" width="5" height="5" rx="1"></rect>
                <rect id="Rectangle-29-Copy-5" stroke="#ffffff" x="34.5" y="26.5" width="5" height="5" rx="1"></rect>
                <rect id="Rectangle-29-Copy-2" stroke="#ffffff" x="20.5" y="15.5" width="5" height="5" rx="1"></rect>
                <path d="M3.5,34.5 L14.5,34.5 L14.5,14.5 L4,14.5 C3.72385763,14.5 3.5,14.7238576 3.5,15 L3.5,34.5 Z" id="Rectangle-26" stroke="#ffffff"></path>
                <path d="M31.5,34.5 L42.5,34.5 L42.5,14.5 L32,14.5 C31.7238576,14.5 31.5,14.7238576 31.5,15 L31.5,34.5 Z" id="Rectangle-26-Copy" stroke="#ffffff" transform="translate(37.000000, 24.500000) scale(-1, 1) translate(-37.000000, -24.500000) "></path>
                <rect id="Rectangle-31" fill="#ffffff" x="11" y="0" width="24" height="1" rx="0.5"></rect>
                <rect id="Rectangle-31-Copy" fill="#ffffff" x="0" y="14" width="10" height="1" rx="0.5"></rect>
                <rect id="Rectangle-31-Copy-2" fill="#ffffff" x="36" y="14" width="10" height="1" rx="0.5"></rect>
            </g>
        </g>
    </g>
</svg>